<svg width="245" height="40" viewBox="0 0 245 40" fill="none" xmlns="http://www.w3.org/2000/svg">
<g id="Logo=Nuvemshop, Country=Brasil, Theme=Light" clip-path="url(#clip0_25_1389)">
<path id="Vector" d="M35.9165 0H35.8938C35.8938 0 35.8812 0 35.8737 0C30.6541 0.00755002 25.6811 2.05864 21.9691 5.66755C20.069 4.86221 18.0229 4.44444 15.9089 4.44444C7.32956 4.44444 0.35083 11.4232 0.35083 20C0.35083 28.5768 7.32956 35.5556 15.9064 35.5556C17.9877 35.5556 20.0463 35.1302 21.9514 34.3299C25.5553 37.8357 30.4704 40 35.8837 40C46.9118 40 55.8837 31.0281 55.8837 20C55.8837 8.97194 46.9294 0.0176167 35.9165 0ZM35.8837 35.5556C27.3069 35.5556 20.3282 28.5768 20.3282 20H15.8837C15.8837 23.9235 17.0238 27.5827 18.9818 30.6732C17.9852 30.9601 16.9508 31.1111 15.9064 31.1111C9.7808 31.1111 4.79527 26.1256 4.79527 20C4.79527 13.8744 9.7808 8.88889 15.9064 8.88889C18.3325 8.88889 20.6377 9.65647 22.5705 11.1086C25.3968 13.2301 27.0175 16.4716 27.0175 20H31.4619C31.4619 15.3467 29.4461 11.0507 25.9051 8.08607C28.6861 5.75311 32.2119 4.44696 35.8938 4.44444C44.4656 4.44948 51.4368 11.4257 51.4368 20C51.4368 28.5743 44.458 35.5556 35.8812 35.5556H35.8837ZM82.1024 13.9298C82.6687 14.944 82.9531 16.1168 82.9531 17.4481V28.9015H78.6672V18.4623C78.6672 17.6771 78.5137 17.0001 78.2091 16.4339C77.9046 15.8676 77.4768 15.4297 76.9332 15.1252C76.3871 14.8207 75.7655 14.6672 75.0683 14.6672C74.3712 14.6672 73.7471 14.8207 73.2035 15.1252C72.6574 15.4297 72.232 15.8676 71.9275 16.4339C71.6205 17.0026 71.4695 17.6771 71.4695 18.4623V28.9015H67.1509V11.0985H71.2078V13.288C71.6205 12.5532 72.1943 11.9693 72.9266 11.5389C73.8754 10.9828 74.9828 10.7034 76.2486 10.7034C77.5145 10.7034 78.72 10.9878 79.7342 11.554C80.7485 12.1228 81.5387 12.913 82.1075 13.9273L82.1024 13.9298ZM97.4869 11.0985H101.773V21.8976C101.773 23.3598 101.441 24.6458 100.774 25.7581C100.107 26.8705 99.1906 27.7388 98.0254 28.3604C96.8577 28.982 95.4786 29.2941 93.8855 29.2941C92.2924 29.2941 90.9334 28.982 89.7456 28.3604C88.5552 27.7388 87.6291 26.8705 86.9646 25.7581C86.2977 24.6458 85.9655 23.3572 85.9655 21.8976V11.0985H90.2841V21.7667C90.2841 22.4865 90.4377 23.1131 90.7422 23.6492C91.0467 24.1852 91.472 24.603 92.0181 24.91C92.5642 25.2145 93.1859 25.3681 93.883 25.3681C94.5801 25.3681 95.2344 25.2145 95.7805 24.91C96.3267 24.6055 96.747 24.1852 97.0414 23.6492C97.3359 23.1156 97.4843 22.4865 97.4843 21.7667V11.0985H97.4869ZM121.033 11.0985L114.029 28.9015H110.234L103.23 11.0985H107.908L112.116 22.718L116.352 11.0985H121.03H121.033ZM136.244 13.2906C135.501 12.4827 134.603 11.851 133.543 11.393C132.484 10.9349 131.258 10.7059 129.861 10.7059C128.18 10.7059 126.675 11.1086 125.346 11.9164C124.015 12.7243 122.958 13.8191 122.173 15.2057C121.388 16.5924 120.995 18.1779 120.995 19.9673C120.995 21.7566 121.378 23.2616 122.14 24.6785C122.903 26.0979 123.977 27.2203 125.364 28.0483C126.748 28.8788 128.359 29.2916 130.191 29.2916C131.391 29.2916 132.504 29.1053 133.528 28.7354C134.552 28.3654 135.436 27.852 136.178 27.1977C136.921 26.5433 137.464 25.7909 137.814 24.9402L134.346 23.239C133.953 23.9386 133.412 24.4948 132.725 24.9075C132.038 25.3228 131.203 25.5291 130.221 25.5291C129.24 25.5291 128.371 25.3001 127.619 24.8421C126.866 24.384 126.298 23.7347 125.918 22.8942C125.689 22.3883 125.545 21.8372 125.485 21.2407H138.305C138.393 20.979 138.451 20.6896 138.483 20.3725C138.516 20.0554 138.534 19.7332 138.534 19.4061C138.534 18.2056 138.337 17.0882 137.945 16.0513C137.552 15.0145 136.984 14.0934 136.244 13.2855V13.2906ZM127.473 14.9264C128.17 14.4684 128.968 14.2393 129.861 14.2393C130.755 14.2393 131.6 14.4684 132.267 14.9264C132.932 15.3844 133.412 16.006 133.707 16.7912C133.84 17.1486 133.921 17.5337 133.946 17.9363H125.573C125.646 17.5613 125.749 17.2115 125.885 16.8894C126.245 16.0388 126.773 15.3844 127.473 14.9264ZM166.607 13.9273C167.174 14.9415 167.458 16.1143 167.458 17.4456V28.899H163.172V18.4598C163.172 17.6746 163.031 16.9976 162.747 16.4314C162.462 15.8651 162.065 15.4272 161.551 15.1227C161.038 14.8182 160.434 14.6647 159.734 14.6647C159.035 14.6647 158.458 14.8182 157.935 15.1227C157.411 15.4272 157.006 15.8651 156.724 16.4314C156.44 17.0001 156.299 17.6746 156.299 18.4598V28.899H152.013V18.4598C152.013 17.6746 151.872 16.9976 151.588 16.4314C151.303 15.8651 150.906 15.4272 150.392 15.1227C149.879 14.8182 149.275 14.6647 148.575 14.6647C147.876 14.6647 147.299 14.8182 146.776 15.1227C146.252 15.4272 145.847 15.8651 145.565 16.4314C145.281 17.0001 145.14 17.6746 145.14 18.4598V28.899H140.821V11.0985H144.878V13.3358C145.241 12.6312 145.742 12.07 146.383 11.6547C147.365 11.023 148.52 10.7059 149.851 10.7059C151.313 10.7059 152.599 11.0885 153.712 11.851C154.414 12.3317 154.958 12.9105 155.348 13.5825C155.823 12.8325 156.412 12.226 157.114 11.768C158.204 11.0583 159.46 10.7034 160.877 10.7034C162.143 10.7034 163.27 10.9878 164.264 11.554C165.256 12.1228 166.036 12.913 166.605 13.9273H166.607ZM174.364 16.006C174.364 16.3131 174.452 16.5849 174.625 16.824C174.799 17.0656 175.046 17.2593 175.363 17.4129C175.68 17.5664 176.045 17.7073 176.46 17.8382L179.306 18.6888C180.769 19.1267 181.896 19.781 182.694 20.6518C183.489 21.5251 183.889 22.5947 183.889 23.8581C183.889 24.9276 183.605 25.8714 183.039 26.6893C182.472 27.5072 181.685 28.1465 180.683 28.6045C179.679 29.0625 178.501 29.2916 177.15 29.2916C175.252 29.2916 173.599 28.8386 172.192 27.9326C170.785 27.0266 169.808 25.8009 169.262 24.2507L172.501 22.713C172.959 23.7171 173.599 24.5023 174.417 25.0686C175.234 25.6348 176.145 25.9192 177.15 25.9192C177.912 25.9192 178.524 25.7456 178.982 25.3957C179.44 25.0459 179.669 24.5879 179.669 24.0216C179.669 23.6718 179.576 23.3824 179.389 23.1534C179.203 22.9244 178.959 22.7281 178.652 22.5645C178.345 22.4009 177.998 22.265 177.605 22.1543L174.693 21.3364C173.209 20.9211 172.081 20.2617 171.306 19.3557C170.531 18.4497 170.143 17.3877 170.143 16.1646C170.143 15.0749 170.423 14.1185 170.979 13.3006C171.535 12.4827 172.31 11.8435 173.302 11.3854C174.293 10.9274 175.433 10.6984 176.722 10.6984C178.4 10.6984 179.885 11.101 181.171 11.9089C182.457 12.7167 183.373 13.8518 183.919 15.3114L180.648 16.8491C180.343 16.0413 179.83 15.4046 179.11 14.9339C178.39 14.4658 177.582 14.2293 176.689 14.2293C175.969 14.2293 175.401 14.3878 174.988 14.7049C174.573 15.022 174.366 15.4524 174.366 15.9985L174.364 16.006ZM201.229 13.9273C201.795 14.9415 202.08 16.1143 202.08 17.4456V28.899H197.794V18.4598C197.794 17.6746 197.64 16.9976 197.336 16.4314C197.031 15.8651 196.611 15.4272 196.075 15.1227C195.539 14.8182 194.912 14.6647 194.193 14.6647C193.473 14.6647 192.871 14.8182 192.328 15.1227C191.782 15.4272 191.356 15.8651 191.052 16.4314C190.745 17.0001 190.594 17.6746 190.594 18.4598V28.899H186.275V4.45703H190.594V12.8728C190.976 12.3317 191.462 11.8862 192.051 11.5415C193 10.9853 194.107 10.7059 195.373 10.7059C196.639 10.7059 197.844 10.9903 198.858 11.5566C199.873 12.1253 200.663 12.9156 201.232 13.9298L201.229 13.9273ZM218.544 11.9139C217.124 11.1061 215.534 10.7034 213.767 10.7034C212.001 10.7034 210.44 11.1061 209.023 11.9139C207.604 12.7218 206.471 13.8241 205.621 15.2183C204.77 16.6151 204.345 18.2081 204.345 19.995C204.345 21.7818 204.77 23.3774 205.621 24.7716C206.471 26.1684 207.611 27.2707 209.041 28.076C210.47 28.8839 212.046 29.2865 213.77 29.2865C215.494 29.2865 217.097 28.8839 218.514 28.076C219.931 27.2682 221.066 26.1684 221.916 24.7716C222.767 23.3749 223.192 21.7818 223.192 19.995C223.192 18.2081 222.772 16.5874 221.931 15.2007C221.091 13.8165 219.963 12.7193 218.544 11.9114V11.9139ZM218.068 22.7633C217.643 23.5812 217.064 24.2205 216.334 24.6785C215.602 25.1365 214.746 25.3655 213.765 25.3655C212.783 25.3655 211.953 25.1365 211.213 24.6785C210.47 24.2205 209.887 23.5812 209.461 22.7633C209.036 21.9454 208.822 21.0243 208.822 19.9975C208.822 18.9707 209.036 18.0571 209.461 17.2493C209.887 16.4414 210.47 15.8097 211.213 15.3517C211.955 14.8937 212.806 14.6647 213.765 14.6647C214.724 14.6647 215.602 14.8937 216.334 15.3517C217.064 15.8097 217.643 16.4439 218.068 17.2493C218.494 18.0571 218.707 18.9732 218.707 19.9975C218.707 21.0218 218.494 21.9454 218.068 22.7633ZM243.18 15.2863C242.382 13.8895 241.31 12.7771 239.956 11.9492C238.602 11.1212 237.087 10.7059 235.408 10.7059C234.034 10.7059 232.823 10.9727 231.777 11.5087C230.938 11.9366 230.241 12.5053 229.683 13.205V11.0985H225.626V35.5782H229.944V27.1927C230.47 27.7514 231.097 28.2044 231.827 28.5416C232.907 29.0424 234.089 29.2941 235.378 29.2941C237.102 29.2941 238.639 28.8839 239.991 28.0659C241.342 27.248 242.412 26.1306 243.197 24.7112C243.982 23.2943 244.375 21.7214 244.375 20C244.375 18.2786 243.977 16.683 243.18 15.2888V15.2863ZM239.269 22.7809C238.833 23.5888 238.237 24.2205 237.484 24.6785C236.732 25.1365 235.864 25.3655 234.882 25.3655C233.901 25.3655 233.098 25.1365 232.345 24.6785C231.593 24.2205 231.004 23.5888 230.579 22.7809C230.153 21.9731 229.939 21.0469 229.939 20C229.939 18.9531 230.153 18.0596 230.579 17.2518C231.004 16.4439 231.593 15.8123 232.345 15.3542C233.098 14.8962 233.943 14.6672 234.882 14.6672C235.821 14.6672 236.732 14.8962 237.484 15.3542C238.237 15.8123 238.831 16.4465 239.269 17.2518C239.704 18.0596 239.923 18.9757 239.923 20C239.923 21.0243 239.704 21.9756 239.269 22.7809Z" fill="#0050C3"/>
</g>
<defs>
<clipPath id="clip0_25_1389">
<rect width="244.375" height="40" fill="white"/>
</clipPath>
</defs>
</svg>

