<svg width="245" height="40" viewBox="0 0 245 40" fill="none" xmlns="http://www.w3.org/2000/svg">
<g id="Logo=Nuvemshop, Country=Brasil, Theme=Dark">
<path id="Vector" d="M35.5656 0H35.543C35.543 0 35.5304 0 35.5228 0C30.3033 0.00755002 25.3303 2.05864 21.6182 5.66755C19.7181 4.86221 17.6721 4.44444 15.5581 4.44444C6.97873 4.44444 0 11.4232 0 20C0 28.5768 6.97873 35.5556 15.5556 35.5556C17.6368 35.5556 19.6955 35.1302 21.6006 34.3299C25.2045 37.8357 30.1195 40 35.5329 40C46.561 40 55.5329 31.0281 55.5329 20C55.5329 8.97194 46.5786 0.0176167 35.5656 0ZM35.5329 35.5556C26.9561 35.5556 19.9773 28.5768 19.9773 20H15.5329C15.5329 23.9235 16.673 27.5827 18.6309 30.6732C17.6343 30.9601 16.6 31.1111 15.5556 31.1111C9.42997 31.1111 4.44444 26.1256 4.44444 20C4.44444 13.8744 9.42997 8.88889 15.5556 8.88889C17.9816 8.88889 20.2869 9.65647 22.2197 11.1086C25.0459 13.2301 26.6667 16.4716 26.6667 20H31.1111C31.1111 15.3467 29.0953 11.0507 25.5543 8.08607C28.3352 5.75311 31.8611 4.44696 35.543 4.44444C44.1148 4.44948 51.0859 11.4257 51.0859 20C51.0859 28.5743 44.1072 35.5556 35.5304 35.5556H35.5329ZM81.7516 13.9298C82.3179 14.944 82.6022 16.1168 82.6022 17.4481V28.9015H78.3163V18.4623C78.3163 17.6771 78.1628 17.0001 77.8583 16.4339C77.5538 15.8676 77.126 15.4297 76.5824 15.1252C76.0362 14.8207 75.4146 14.6672 74.7175 14.6672C74.0204 14.6672 73.3962 14.8207 72.8527 15.1252C72.3065 15.4297 71.8812 15.8676 71.5767 16.4339C71.2697 17.0026 71.1187 17.6771 71.1187 18.4623V28.9015H66.8V11.0985H70.8569V13.288C71.2697 12.5532 71.8435 11.9693 72.5758 11.5389C73.5246 10.9828 74.6319 10.7034 75.8978 10.7034C77.1637 10.7034 78.3692 10.9878 79.3834 11.554C80.3976 12.1228 81.1879 12.913 81.7566 13.9273L81.7516 13.9298ZM97.136 11.0985H101.422V21.8976C101.422 23.3598 101.09 24.6458 100.423 25.7581C99.7559 26.8705 98.8398 27.7388 97.6746 28.3604C96.5069 28.982 95.1277 29.2941 93.5347 29.2941C91.9416 29.2941 90.5826 28.982 89.3947 28.3604C88.2044 27.7388 87.2782 26.8705 86.6138 25.7581C85.9469 24.6458 85.6147 23.3572 85.6147 21.8976V11.0985H89.9333V21.7667C89.9333 22.4865 90.0868 23.1131 90.3913 23.6492C90.6959 24.1852 91.1212 24.603 91.6673 24.91C92.2134 25.2145 92.835 25.3681 93.5322 25.3681C94.2293 25.3681 94.8836 25.2145 95.4297 24.91C95.9758 24.6055 96.3961 24.1852 96.6906 23.6492C96.985 23.1156 97.1335 22.4865 97.1335 21.7667V11.0985H97.136ZM120.682 11.0985L113.678 28.9015H109.883L102.879 11.0985H107.558L111.765 22.718L116.001 11.0985H120.679H120.682ZM135.893 13.2906C135.15 12.4827 134.252 11.851 133.192 11.393C132.133 10.9349 130.907 10.7059 129.51 10.7059C127.829 10.7059 126.324 11.1086 124.996 11.9164C123.664 12.7243 122.607 13.8191 121.822 15.2057C121.037 16.5924 120.644 18.1779 120.644 19.9673C120.644 21.7566 121.027 23.2616 121.789 24.6785C122.552 26.0979 123.627 27.2203 125.013 28.0483C126.397 28.8788 128.008 29.2916 129.84 29.2916C131.041 29.2916 132.153 29.1053 133.177 28.7354C134.202 28.3654 135.085 27.852 135.827 27.1977C136.57 26.5433 137.113 25.7909 137.463 24.9402L133.995 23.239C133.603 23.9386 133.062 24.4948 132.374 24.9075C131.687 25.3228 130.852 25.5291 129.87 25.5291C128.889 25.5291 128.021 25.3001 127.268 24.8421C126.516 24.384 125.947 23.7347 125.567 22.8942C125.338 22.3883 125.194 21.8372 125.134 21.2407H137.954C138.042 20.979 138.1 20.6896 138.133 20.3725C138.165 20.0554 138.183 19.7332 138.183 19.4061C138.183 18.2056 137.987 17.0882 137.594 16.0513C137.201 15.0145 136.633 14.0934 135.893 13.2855V13.2906ZM127.122 14.9264C127.819 14.4684 128.617 14.2393 129.51 14.2393C130.404 14.2393 131.25 14.4684 131.916 14.9264C132.581 15.3844 133.062 16.006 133.356 16.7912C133.489 17.1486 133.57 17.5337 133.595 17.9363H125.222C125.295 17.5613 125.398 17.2115 125.534 16.8894C125.894 16.0388 126.423 15.3844 127.122 14.9264ZM166.256 13.9273C166.823 14.9415 167.107 16.1143 167.107 17.4456V28.899H162.821V18.4598C162.821 17.6746 162.68 16.9976 162.396 16.4314C162.111 15.8651 161.714 15.4272 161.2 15.1227C160.687 14.8182 160.083 14.6647 159.383 14.6647C158.684 14.6647 158.107 14.8182 157.584 15.1227C157.061 15.4272 156.655 15.8651 156.373 16.4314C156.089 17.0001 155.948 17.6746 155.948 18.4598V28.899H151.662V18.4598C151.662 17.6746 151.521 16.9976 151.237 16.4314C150.953 15.8651 150.555 15.4272 150.042 15.1227C149.528 14.8182 148.924 14.6647 148.224 14.6647C147.525 14.6647 146.949 14.8182 146.425 15.1227C145.902 15.4272 145.496 15.8651 145.215 16.4314C144.93 17.0001 144.789 17.6746 144.789 18.4598V28.899H140.471V11.0985H144.527V13.3358C144.89 12.6312 145.391 12.07 146.032 11.6547C147.014 11.023 148.169 10.7059 149.5 10.7059C150.963 10.7059 152.249 11.0885 153.361 11.851C154.063 12.3317 154.607 12.9105 154.997 13.5825C155.473 12.8325 156.061 12.226 156.764 11.768C157.853 11.0583 159.109 10.7034 160.526 10.7034C161.792 10.7034 162.919 10.9878 163.913 11.554C164.905 12.1228 165.685 12.913 166.254 13.9273H166.256ZM174.013 16.006C174.013 16.3131 174.101 16.5849 174.275 16.824C174.448 17.0656 174.695 17.2593 175.012 17.4129C175.329 17.5664 175.694 17.7073 176.109 17.8382L178.956 18.6888C180.418 19.1267 181.545 19.781 182.343 20.6518C183.138 21.5251 183.538 22.5947 183.538 23.8581C183.538 24.9276 183.254 25.8714 182.688 26.6893C182.122 27.5072 181.334 28.1465 180.332 28.6045C179.328 29.0625 178.15 29.2916 176.799 29.2916C174.901 29.2916 173.248 28.8386 171.841 27.9326C170.434 27.0266 169.458 25.8009 168.912 24.2507L172.15 22.713C172.609 23.7171 173.248 24.5023 174.066 25.0686C174.884 25.6348 175.795 25.9192 176.799 25.9192C177.561 25.9192 178.173 25.7456 178.631 25.3957C179.089 25.0459 179.318 24.5879 179.318 24.0216C179.318 23.6718 179.225 23.3824 179.039 23.1534C178.852 22.9244 178.608 22.7281 178.301 22.5645C177.994 22.4009 177.647 22.265 177.254 22.1543L174.343 21.3364C172.858 20.9211 171.73 20.2617 170.955 19.3557C170.18 18.4497 169.792 17.3877 169.792 16.1646C169.792 15.0749 170.072 14.1185 170.628 13.3006C171.184 12.4827 171.959 11.8435 172.951 11.3854C173.942 10.9274 175.082 10.6984 176.371 10.6984C178.05 10.6984 179.534 11.101 180.82 11.9089C182.106 12.7167 183.023 13.8518 183.569 15.3114L180.297 16.8491C179.992 16.0413 179.479 15.4046 178.759 14.9339C178.04 14.4658 177.232 14.2293 176.338 14.2293C175.618 14.2293 175.05 14.3878 174.637 14.7049C174.222 15.022 174.015 15.4524 174.015 15.9985L174.013 16.006ZM200.878 13.9273C201.445 14.9415 201.729 16.1143 201.729 17.4456V28.899H197.443V18.4598C197.443 17.6746 197.29 16.9976 196.985 16.4314C196.68 15.8651 196.26 15.4272 195.724 15.1227C195.188 14.8182 194.561 14.6647 193.842 14.6647C193.122 14.6647 192.52 14.8182 191.977 15.1227C191.431 15.4272 191.005 15.8651 190.701 16.4314C190.394 17.0001 190.243 17.6746 190.243 18.4598V28.899H185.924V4.45703H190.243V12.8728C190.625 12.3317 191.111 11.8862 191.7 11.5415C192.649 10.9853 193.756 10.7059 195.022 10.7059C196.288 10.7059 197.493 10.9903 198.508 11.5566C199.522 12.1253 200.312 12.9156 200.881 13.9298L200.878 13.9273ZM218.193 11.9139C216.774 11.1061 215.183 10.7034 213.416 10.7034C211.65 10.7034 210.089 11.1061 208.672 11.9139C207.253 12.7218 206.121 13.8241 205.27 15.2183C204.419 16.6151 203.994 18.2081 203.994 19.995C203.994 21.7818 204.419 23.3774 205.27 24.7716C206.121 26.1684 207.261 27.2707 208.69 28.076C210.12 28.8839 211.695 29.2865 213.419 29.2865C215.143 29.2865 216.746 28.8839 218.163 28.076C219.58 27.2682 220.715 26.1684 221.565 24.7716C222.416 23.3749 222.841 21.7818 222.841 19.995C222.841 18.2081 222.421 16.5874 221.58 15.2007C220.74 13.8165 219.612 12.7193 218.193 11.9114V11.9139ZM217.717 22.7633C217.292 23.5812 216.713 24.2205 215.983 24.6785C215.251 25.1365 214.395 25.3655 213.414 25.3655C212.432 25.3655 211.602 25.1365 210.862 24.6785C210.12 24.2205 209.536 23.5812 209.11 22.7633C208.685 21.9454 208.471 21.0243 208.471 19.9975C208.471 18.9707 208.685 18.0571 209.11 17.2493C209.536 16.4414 210.12 15.8097 210.862 15.3517C211.604 14.8937 212.455 14.6647 213.414 14.6647C214.373 14.6647 215.251 14.8937 215.983 15.3517C216.713 15.8097 217.292 16.4439 217.717 17.2493C218.143 18.0571 218.357 18.9732 218.357 19.9975C218.357 21.0218 218.143 21.9454 217.717 22.7633ZM242.829 15.2863C242.031 13.8895 240.959 12.7771 239.605 11.9492C238.251 11.1212 236.736 10.7059 235.057 10.7059C233.683 10.7059 232.473 10.9727 231.426 11.5087C230.588 11.9366 229.891 12.5053 229.332 13.205V11.0985H225.275V35.5782H229.594V27.1927C230.12 27.7514 230.746 28.2044 231.476 28.5416C232.556 29.0424 233.739 29.2941 235.027 29.2941C236.751 29.2941 238.289 28.8839 239.64 28.0659C240.992 27.248 242.061 26.1306 242.846 24.7112C243.632 23.2943 244.024 21.7214 244.024 20C244.024 18.2786 243.627 16.683 242.829 15.2888V15.2863ZM238.918 22.7809C238.482 23.5888 237.886 24.2205 237.133 24.6785C236.381 25.1365 235.513 25.3655 234.531 25.3655C233.55 25.3655 232.747 25.1365 231.994 24.6785C231.242 24.2205 230.653 23.5888 230.228 22.7809C229.802 21.9731 229.589 21.0469 229.589 20C229.589 18.9531 229.802 18.0596 230.228 17.2518C230.653 16.4439 231.242 15.8123 231.994 15.3542C232.747 14.8962 233.593 14.6672 234.531 14.6672C235.47 14.6672 236.381 14.8962 237.133 15.3542C237.886 15.8123 238.48 16.4465 238.918 17.2518C239.353 18.0596 239.572 18.9757 239.572 20C239.572 21.0243 239.353 21.9756 238.918 22.7809Z" fill="white"/>
</g>
</svg>

